PathFileType	4	(X/Y/Z)	c:/Users/goper/Files/vsCode/490R/osim_files/C08/C08_Slow_04.trc
DataRate	CameraRate	NumFrames	NumMarkers	Units                	OrigDataRate	OrigDataStartFrame	OrigNumFrames
250.00	250.00	4	36	mm	250.0	1376	2750
                Frame#	Time	LPSIS			LASIS			LTH1			LTH2			LTH3			LTH4			LLFE			LMFE			LSH1			LSH2			LSH3			LSH4			LLMAL			LMMAL			LCAL			LMTP5			LTOE			LMTP1			RPSIS			RASIS			RTH1			RTH2			RTH3			RTH4			RLFE			RMFE			RSH1			RSH2			RSH3			RSH4			RLMAL			RMMAL			RCAL			RMTP1			RTOE			RMTP5		
		X1	Y1	Z1	X2	Y2	Z2	X3	Y3	Z3	X4	Y4	Z4	X5	Y5	Z5	X6	Y6	Z6	X7	Y7	Z7	X8	Y8	Z8	X9	Y9	Z9	X10	Y10	Z10	X11	Y11	Z11	X12	Y12	Z12	X13	Y13	Z13	X14	Y14	Z14	X15	Y15	Z15	X16	Y16	Z16	X17	Y17	Z17	X18	Y18	Z18	X19	Y19	Z19	X20	Y20	Z20	X21	Y21	Z21	X22	Y22	Z22	X23	Y23	Z23	X24	Y24	Z24	X25	Y25	Z25	X26	Y26	Z26	X27	Y27	Z27	X28	Y28	Z28	X29	Y29	Z29	X30	Y30	Z30	X31	Y31	Z31	X32	Y32	Z32	X33	Y33	Z33	X34	Y34	Z34	X35	Y35	Z35	X36	Y36	Z36

1376	5.50000	-745.44336	1035.09888	226.23500	-951.63092	994.30145	316.19733	-814.59570	726.91644	380.07458	-795.43896	653.72839	359.58823	-781.05176	582.76898	350.44601	-873.29565	646.79315	340.59827	-767.78369	533.93585	341.43188	-771.56543	524.54492	211.48427	-680.97626	423.67691	347.37756	-672.69226	377.56168	347.31491	-741.28119	411.84311	348.44653	-724.15918	367.59515	345.46704	-607.20142	110.97368	288.95886	-630.25037	118.32507	199.59875	-539.07440	93.30737	232.50798	-712.37000	42.74352	319.79047	-777.41010	56.76121	261.13229	-741.91376	43.71328	208.40237	-746.15002	1029.55017	166.63608	-943.87476	998.31525	77.68858	-937.53418	735.25153	10.91515	-965.23926	661.99091	26.09224	-987.91504	586.83826	34.23149	-1035.61792	689.59277	47.68169	-1023.59375	527.46735	51.50958	-1034.82263	521.20300	179.70320	-998.51642	433.10172	39.05902	-1018.82892	393.13434	32.56317	-1056.52258	454.04428	41.41385	-1069.05798	411.75906	34.64857	-1131.41211	108.54629	80.81311	-1164.52185	125.98262	164.89250	-1091.56042	65.52998	155.60429	-1300.48193	114.33028	141.27003	-1301.59875	137.31874	85.66022	-1261.54382	92.51757	31.57690
1377	5.50400	-749.81952	1034.68811	225.79054	-955.96356	993.98828	315.86221	-818.61334	726.75684	379.73157	-799.23529	653.60175	359.32611	-784.77106	582.63971	350.24619	-877.12109	646.53455	340.39529	-771.27032	533.83258	341.22577	-775.28058	524.35883	211.33429	-683.84906	424.26608	347.24673	-675.20624	378.05884	347.24432	-743.73938	411.51532	348.35260	-726.69159	367.77054	345.39883	-607.88733	111.84748	289.08768	-630.88196	118.98330	199.79477	-539.61029	94.67281	232.71548	-712.54150	42.74663	319.89224	-777.55133	56.62793	261.14874	-741.97937	43.68879	208.08615	-750.57489	1029.05762	166.24208	-948.33215	997.95203	77.22032	-942.26831	735.11304	10.81687	-970.14771	661.90955	26.07468	-992.96381	586.82983	34.32634	-1040.43530	689.76160	47.72808	-1028.58289	527.43713	51.66865	-1039.98071	521.44409	179.73157	-1003.22357	432.84265	39.12359	-1023.22534	392.84363	32.75628	-1060.93689	453.73227	41.40374	-1073.52026	411.21399	34.92636	-1133.20129	107.54671	81.36214	-1166.53564	124.78340	165.41953	-1093.05396	64.91499	156.24083	-1302.40759	112.06745	141.61809	-1303.66345	135.02452	86.08164	-1263.15515	90.65067	32.01776
1378	5.50800	-754.18634	1034.30981	225.34669	-960.33295	993.63751	315.46747	-822.54773	726.61481	379.36902	-803.10156	653.47095	359.07922	-788.53363	582.47449	350.02481	-881.02039	646.21185	340.11584	-775.03351	533.75897	341.01550	-778.92773	524.02789	211.53030	-686.72388	424.58936	347.04019	-677.88757	378.53931	347.14041	-746.20624	411.08896	348.15051	-729.27515	367.84039	345.28079	-608.63342	112.74649	289.20038	-631.58777	119.73135	199.94221	-540.16656	96.05217	232.88652	-712.68549	42.72247	319.96121	-777.66400	56.46185	261.12375	-742.13806	43.73160	208.11740	-754.98206	1028.68250	165.83517	-952.86780	997.61115	76.70748	-947.11554	734.93341	10.70289	-975.14240	661.82092	26.10298	-998.14868	586.87360	34.26476	-1045.27722	689.98407	47.79642	-1033.63086	527.41656	51.87578	-1045.07544	521.68073	179.72789	-1007.83881	432.70944	39.29992	-1027.51453	392.60410	32.96516	-1065.60730	453.25531	41.72406	-1077.87158	410.64020	35.21701	-1134.56787	106.52458	81.84744	-1168.07581	123.38467	165.99472	-1094.07373	64.62911	156.76619	-1303.87170	109.42249	142.13087	-1305.30493	132.49623	86.60132	-1264.38550	88.57496	32.55346
1379	5.51200	-758.66998	1033.87268	224.92453	-964.72577	993.27356	315.12402	-826.58618	726.44116	379.03687	-807.09869	653.26624	358.85071	-792.44501	582.31317	349.80054	-884.95776	645.90472	339.86182	-778.42413	533.67200	340.86081	-782.92908	524.00171	210.98038	-689.78650	425.08878	346.95996	-680.62933	379.05743	347.06372	-748.83075	410.72296	348.05194	-731.91302	367.95331	345.17929	-609.30200	113.67320	289.33597	-632.31250	120.49677	200.16808	-540.76276	97.48388	233.12669	-712.84558	42.72443	320.05002	-777.82147	56.31703	261.15115	-742.50433	43.71453	208.71194	-759.51337	1028.21765	165.45833	-957.43066	997.28687	76.12152	-951.91638	734.80402	10.60835	-980.20111	661.80878	26.10595	-1003.40936	586.97070	34.16054	-1050.22192	690.23694	47.93441	-1038.75842	527.38055	52.09045	-1050.20776	521.89600	179.73770	-1012.41193	432.56909	39.50637	-1031.72144	392.33334	33.15290	-1070.44995	452.59631	42.31588	-1082.17932	410.01367	35.60067	-1135.60559	105.67652	82.26076	-1169.26978	121.90530	166.55743	-1094.62292	64.52197	157.19717	-1304.92603	106.25521	142.77534	-1306.69421	129.71541	87.36137	-1265.25708	86.54156	33.22568
